<mxfile host="Electron" modified="2024-01-25T11:35:44.404Z" agent="Mozilla/5.0 (Windows NT 10.0; Win64; x64) AppleWebKit/537.36 (KHTML, like Gecko) draw.io/22.1.16 Chrome/120.0.6099.109 Electron/28.1.0 Safari/537.36" etag="NpFxGN80ggJNVh0dA38b" version="22.1.16" type="device">
  <diagram name="Page-1" id="TuBtru8UQ8yAs7giigaF">
    <mxGraphModel dx="2759" dy="2229" grid="1" gridSize="10" guides="1" tooltips="1" connect="1" arrows="1" fold="1" page="1" pageScale="1" pageWidth="850" pageHeight="1100" math="0" shadow="0">
      <root>
        <mxCell id="0" />
        <mxCell id="1" parent="0" />
        <mxCell id="8WoneooBpd2VVHjkrXWX-6" value="المشتري" style="shape=umlActor;verticalLabelPosition=bottom;verticalAlign=top;html=1;" parent="1" vertex="1">
          <mxGeometry x="1040" y="510" width="50" height="80" as="geometry" />
        </mxCell>
        <mxCell id="8WoneooBpd2VVHjkrXWX-8" value="الأدمن" style="shape=umlActor;verticalLabelPosition=bottom;verticalAlign=top;html=1;" parent="1" vertex="1">
          <mxGeometry x="-270" y="640" width="30" height="60" as="geometry" />
        </mxCell>
        <mxCell id="8WoneooBpd2VVHjkrXWX-11" value="المورد" style="shape=umlActor;verticalLabelPosition=bottom;verticalAlign=top;html=1;" parent="1" vertex="1">
          <mxGeometry x="1050" y="690" width="30" height="60" as="geometry" />
        </mxCell>
        <mxCell id="8WoneooBpd2VVHjkrXWX-13" value="إنشاء حساب" style="ellipse;whiteSpace=wrap;html=1;fontSize=14;fontStyle=1" parent="1" vertex="1">
          <mxGeometry x="300" y="220" width="140" height="40" as="geometry" />
        </mxCell>
        <mxCell id="8WoneooBpd2VVHjkrXWX-14" value="تسجيل دخول" style="ellipse;whiteSpace=wrap;html=1;fontSize=14;fontStyle=1" parent="1" vertex="1">
          <mxGeometry x="301" y="270" width="140" height="40" as="geometry" />
        </mxCell>
        <mxCell id="8WoneooBpd2VVHjkrXWX-15" value="طلب عرض سعر" style="ellipse;whiteSpace=wrap;html=1;fontSize=14;fontStyle=1" parent="1" vertex="1">
          <mxGeometry x="620" y="30" width="140" height="40" as="geometry" />
        </mxCell>
        <mxCell id="8WoneooBpd2VVHjkrXWX-16" value="تعديل طلب عرض السعر" style="ellipse;whiteSpace=wrap;html=1;fontSize=14;fontStyle=1" parent="1" vertex="1">
          <mxGeometry x="630" y="80" width="140" height="40" as="geometry" />
        </mxCell>
        <mxCell id="8WoneooBpd2VVHjkrXWX-17" value="إظهار طلب عرض السعر" style="ellipse;whiteSpace=wrap;html=1;fontSize=14;fontStyle=1" parent="1" vertex="1">
          <mxGeometry x="630" y="130" width="140" height="40" as="geometry" />
        </mxCell>
        <mxCell id="8WoneooBpd2VVHjkrXWX-18" value="حذف طلب عرض السعر" style="ellipse;whiteSpace=wrap;html=1;fontSize=14;fontStyle=1" parent="1" vertex="1">
          <mxGeometry x="630" y="190" width="140" height="40" as="geometry" />
        </mxCell>
        <mxCell id="8WoneooBpd2VVHjkrXWX-19" value="إرسال عرض السعر" style="ellipse;whiteSpace=wrap;html=1;fontSize=14;fontStyle=1" parent="1" vertex="1">
          <mxGeometry x="635" y="930" width="140" height="40" as="geometry" />
        </mxCell>
        <mxCell id="8WoneooBpd2VVHjkrXWX-20" value="تعديل عرض السعر" style="ellipse;whiteSpace=wrap;html=1;fontSize=14;fontStyle=1" parent="1" vertex="1">
          <mxGeometry x="635" y="980" width="140" height="40" as="geometry" />
        </mxCell>
        <mxCell id="8WoneooBpd2VVHjkrXWX-21" value="قبول عرض سعر" style="ellipse;whiteSpace=wrap;html=1;fontSize=14;fontStyle=1" parent="1" vertex="1">
          <mxGeometry x="630" y="240" width="140" height="40" as="geometry" />
        </mxCell>
        <mxCell id="8WoneooBpd2VVHjkrXWX-23" value="إظهار عرض السعر" style="ellipse;whiteSpace=wrap;html=1;fontSize=14;fontStyle=1" parent="1" vertex="1">
          <mxGeometry x="645" y="1030" width="140" height="40" as="geometry" />
        </mxCell>
        <mxCell id="8WoneooBpd2VVHjkrXWX-24" value="إظهار جميع طلبات عروض الأسعار" style="ellipse;whiteSpace=wrap;html=1;fontSize=14;fontStyle=1" parent="1" vertex="1">
          <mxGeometry x="286" y="320" width="170" height="50" as="geometry" />
        </mxCell>
        <mxCell id="8WoneooBpd2VVHjkrXWX-25" value="إظهار طلبات عروض الأسعار&amp;nbsp;&lt;br style=&quot;font-size: 14px;&quot;&gt;الخاصة بالمشتري" style="ellipse;whiteSpace=wrap;html=1;fontSize=14;fontStyle=1" parent="1" vertex="1">
          <mxGeometry x="615" y="-30" width="170" height="50" as="geometry" />
        </mxCell>
        <mxCell id="8WoneooBpd2VVHjkrXWX-26" value="إظهار عروض الأسعار&amp;nbsp;&lt;br style=&quot;font-size: 14px;&quot;&gt;الخاصة بالمورد" style="ellipse;whiteSpace=wrap;html=1;fontSize=14;fontStyle=1" parent="1" vertex="1">
          <mxGeometry x="630" y="1080" width="170" height="50" as="geometry" />
        </mxCell>
        <mxCell id="8WoneooBpd2VVHjkrXWX-27" value="شحن المحفظة" style="ellipse;whiteSpace=wrap;html=1;fontSize=14;fontStyle=1" parent="1" vertex="1">
          <mxGeometry x="645" y="1140" width="140" height="40" as="geometry" />
        </mxCell>
        <mxCell id="8WoneooBpd2VVHjkrXWX-28" value="إظهار جميع الأشعارات" style="ellipse;whiteSpace=wrap;html=1;fontSize=14;fontStyle=1" parent="1" vertex="1">
          <mxGeometry x="300" y="380" width="140" height="40" as="geometry" />
        </mxCell>
        <mxCell id="8WoneooBpd2VVHjkrXWX-29" value="إظهار جميع الرسائل" style="ellipse;whiteSpace=wrap;html=1;fontSize=14;fontStyle=1" parent="1" vertex="1">
          <mxGeometry x="299" y="440" width="140" height="40" as="geometry" />
        </mxCell>
        <mxCell id="8WoneooBpd2VVHjkrXWX-30" value="إظهار رسالة معينة" style="ellipse;whiteSpace=wrap;html=1;fontSize=14;fontStyle=1" parent="1" vertex="1">
          <mxGeometry x="299" y="500" width="140" height="40" as="geometry" />
        </mxCell>
        <mxCell id="8WoneooBpd2VVHjkrXWX-31" value="إرسال رسالة" style="ellipse;whiteSpace=wrap;html=1;fontSize=14;fontStyle=1" parent="1" vertex="1">
          <mxGeometry x="300" y="560" width="140" height="40" as="geometry" />
        </mxCell>
        <mxCell id="8WoneooBpd2VVHjkrXWX-32" value="تعديل الملف الشخصي" style="ellipse;whiteSpace=wrap;html=1;fontSize=14;fontStyle=1" parent="1" vertex="1">
          <mxGeometry x="300" y="620" width="140" height="40" as="geometry" />
        </mxCell>
        <mxCell id="aPDp1a67JPYYB4x0NhG6-7" value="" style="endArrow=classic;html=1;rounded=0;entryX=1;entryY=0.5;entryDx=0;entryDy=0;exitX=0.5;exitY=0.5;exitDx=0;exitDy=0;exitPerimeter=0;" edge="1" parent="1" source="8WoneooBpd2VVHjkrXWX-6" target="8WoneooBpd2VVHjkrXWX-13">
          <mxGeometry width="50" height="50" relative="1" as="geometry">
            <mxPoint x="540" y="330" as="sourcePoint" />
            <mxPoint x="590" y="280" as="targetPoint" />
          </mxGeometry>
        </mxCell>
        <mxCell id="aPDp1a67JPYYB4x0NhG6-8" style="rounded=0;orthogonalLoop=1;jettySize=auto;html=1;exitX=0.5;exitY=0.5;exitDx=0;exitDy=0;exitPerimeter=0;entryX=1;entryY=0.5;entryDx=0;entryDy=0;" edge="1" parent="1" source="8WoneooBpd2VVHjkrXWX-6" target="8WoneooBpd2VVHjkrXWX-14">
          <mxGeometry relative="1" as="geometry">
            <mxPoint x="250" y="210" as="targetPoint" />
            <mxPoint x="45" y="400" as="sourcePoint" />
          </mxGeometry>
        </mxCell>
        <mxCell id="aPDp1a67JPYYB4x0NhG6-9" style="rounded=0;orthogonalLoop=1;jettySize=auto;html=1;exitX=0.5;exitY=0.5;exitDx=0;exitDy=0;exitPerimeter=0;entryX=1;entryY=0.5;entryDx=0;entryDy=0;" edge="1" parent="1" source="8WoneooBpd2VVHjkrXWX-6" target="8WoneooBpd2VVHjkrXWX-15">
          <mxGeometry relative="1" as="geometry">
            <mxPoint x="260" y="220" as="targetPoint" />
            <mxPoint x="55" y="410" as="sourcePoint" />
          </mxGeometry>
        </mxCell>
        <mxCell id="aPDp1a67JPYYB4x0NhG6-10" style="rounded=0;orthogonalLoop=1;jettySize=auto;html=1;exitX=0.5;exitY=0.5;exitDx=0;exitDy=0;exitPerimeter=0;entryX=1;entryY=0.5;entryDx=0;entryDy=0;" edge="1" parent="1" source="8WoneooBpd2VVHjkrXWX-6" target="8WoneooBpd2VVHjkrXWX-16">
          <mxGeometry relative="1" as="geometry">
            <mxPoint x="270" y="230" as="targetPoint" />
            <mxPoint x="65" y="420" as="sourcePoint" />
          </mxGeometry>
        </mxCell>
        <mxCell id="aPDp1a67JPYYB4x0NhG6-11" style="rounded=0;orthogonalLoop=1;jettySize=auto;html=1;exitX=0.5;exitY=0.5;exitDx=0;exitDy=0;exitPerimeter=0;entryX=1;entryY=0.5;entryDx=0;entryDy=0;" edge="1" parent="1" source="8WoneooBpd2VVHjkrXWX-6" target="8WoneooBpd2VVHjkrXWX-17">
          <mxGeometry relative="1" as="geometry">
            <mxPoint x="280" y="240" as="targetPoint" />
            <mxPoint x="75" y="430" as="sourcePoint" />
          </mxGeometry>
        </mxCell>
        <mxCell id="aPDp1a67JPYYB4x0NhG6-12" style="rounded=0;orthogonalLoop=1;jettySize=auto;html=1;exitX=0.5;exitY=0.5;exitDx=0;exitDy=0;exitPerimeter=0;entryX=1;entryY=0.5;entryDx=0;entryDy=0;" edge="1" parent="1" source="8WoneooBpd2VVHjkrXWX-6" target="8WoneooBpd2VVHjkrXWX-18">
          <mxGeometry relative="1" as="geometry">
            <mxPoint x="290" y="250" as="targetPoint" />
            <mxPoint x="85" y="440" as="sourcePoint" />
          </mxGeometry>
        </mxCell>
        <mxCell id="aPDp1a67JPYYB4x0NhG6-13" style="rounded=0;orthogonalLoop=1;jettySize=auto;html=1;exitX=0.5;exitY=0.5;exitDx=0;exitDy=0;exitPerimeter=0;entryX=1;entryY=0.5;entryDx=0;entryDy=0;" edge="1" parent="1" source="8WoneooBpd2VVHjkrXWX-6" target="8WoneooBpd2VVHjkrXWX-21">
          <mxGeometry relative="1" as="geometry">
            <mxPoint x="300" y="260" as="targetPoint" />
            <mxPoint x="95" y="450" as="sourcePoint" />
          </mxGeometry>
        </mxCell>
        <mxCell id="aPDp1a67JPYYB4x0NhG6-14" style="rounded=0;orthogonalLoop=1;jettySize=auto;html=1;exitX=0.5;exitY=0.5;exitDx=0;exitDy=0;exitPerimeter=0;entryX=1;entryY=0.5;entryDx=0;entryDy=0;" edge="1" parent="1" source="8WoneooBpd2VVHjkrXWX-11" target="8WoneooBpd2VVHjkrXWX-19">
          <mxGeometry relative="1" as="geometry">
            <mxPoint x="310" y="270" as="targetPoint" />
            <mxPoint x="105" y="460" as="sourcePoint" />
          </mxGeometry>
        </mxCell>
        <mxCell id="aPDp1a67JPYYB4x0NhG6-15" style="rounded=0;orthogonalLoop=1;jettySize=auto;html=1;exitX=0.5;exitY=0.5;exitDx=0;exitDy=0;exitPerimeter=0;entryX=1;entryY=0.5;entryDx=0;entryDy=0;" edge="1" parent="1" source="8WoneooBpd2VVHjkrXWX-11" target="8WoneooBpd2VVHjkrXWX-20">
          <mxGeometry relative="1" as="geometry">
            <mxPoint x="320" y="280" as="targetPoint" />
            <mxPoint x="115" y="470" as="sourcePoint" />
          </mxGeometry>
        </mxCell>
        <mxCell id="aPDp1a67JPYYB4x0NhG6-16" style="rounded=0;orthogonalLoop=1;jettySize=auto;html=1;exitX=0.5;exitY=0.5;exitDx=0;exitDy=0;exitPerimeter=0;entryX=1;entryY=0.5;entryDx=0;entryDy=0;" edge="1" parent="1" source="8WoneooBpd2VVHjkrXWX-11" target="8WoneooBpd2VVHjkrXWX-23">
          <mxGeometry relative="1" as="geometry">
            <mxPoint x="330" y="290" as="targetPoint" />
            <mxPoint x="125" y="480" as="sourcePoint" />
          </mxGeometry>
        </mxCell>
        <mxCell id="aPDp1a67JPYYB4x0NhG6-18" style="rounded=0;orthogonalLoop=1;jettySize=auto;html=1;exitX=0.5;exitY=0.5;exitDx=0;exitDy=0;exitPerimeter=0;entryX=1;entryY=0.5;entryDx=0;entryDy=0;" edge="1" parent="1" source="8WoneooBpd2VVHjkrXWX-11" target="8WoneooBpd2VVHjkrXWX-24">
          <mxGeometry relative="1" as="geometry">
            <mxPoint x="450" y="750" as="targetPoint" />
            <mxPoint x="695" y="605" as="sourcePoint" />
          </mxGeometry>
        </mxCell>
        <mxCell id="aPDp1a67JPYYB4x0NhG6-20" style="rounded=0;orthogonalLoop=1;jettySize=auto;html=1;exitX=0.5;exitY=0.5;exitDx=0;exitDy=0;exitPerimeter=0;entryX=1;entryY=0.5;entryDx=0;entryDy=0;" edge="1" parent="1" source="8WoneooBpd2VVHjkrXWX-11" target="8WoneooBpd2VVHjkrXWX-26">
          <mxGeometry relative="1" as="geometry">
            <mxPoint x="640" y="930" as="targetPoint" />
            <mxPoint x="715" y="625" as="sourcePoint" />
          </mxGeometry>
        </mxCell>
        <mxCell id="aPDp1a67JPYYB4x0NhG6-21" style="rounded=0;orthogonalLoop=1;jettySize=auto;html=1;exitX=0.5;exitY=0.5;exitDx=0;exitDy=0;exitPerimeter=0;entryX=1;entryY=0.5;entryDx=0;entryDy=0;" edge="1" parent="1" source="8WoneooBpd2VVHjkrXWX-6" target="8WoneooBpd2VVHjkrXWX-25">
          <mxGeometry relative="1" as="geometry">
            <mxPoint x="449" y="570" as="targetPoint" />
            <mxPoint x="725" y="320" as="sourcePoint" />
          </mxGeometry>
        </mxCell>
        <mxCell id="aPDp1a67JPYYB4x0NhG6-22" style="rounded=0;orthogonalLoop=1;jettySize=auto;html=1;exitX=0.5;exitY=0.5;exitDx=0;exitDy=0;exitPerimeter=0;entryX=1;entryY=0.5;entryDx=0;entryDy=0;" edge="1" parent="1" source="8WoneooBpd2VVHjkrXWX-6" target="8WoneooBpd2VVHjkrXWX-24">
          <mxGeometry relative="1" as="geometry">
            <mxPoint x="449" y="570" as="targetPoint" />
            <mxPoint x="725" y="320" as="sourcePoint" />
          </mxGeometry>
        </mxCell>
        <mxCell id="aPDp1a67JPYYB4x0NhG6-23" style="rounded=0;orthogonalLoop=1;jettySize=auto;html=1;exitX=0.5;exitY=0.5;exitDx=0;exitDy=0;exitPerimeter=0;entryX=1;entryY=0.5;entryDx=0;entryDy=0;" edge="1" parent="1" source="8WoneooBpd2VVHjkrXWX-11" target="8WoneooBpd2VVHjkrXWX-27">
          <mxGeometry relative="1" as="geometry">
            <mxPoint x="577" y="960" as="targetPoint" />
            <mxPoint x="853" y="710" as="sourcePoint" />
          </mxGeometry>
        </mxCell>
        <mxCell id="aPDp1a67JPYYB4x0NhG6-24" style="rounded=0;orthogonalLoop=1;jettySize=auto;html=1;exitX=0.5;exitY=0.5;exitDx=0;exitDy=0;exitPerimeter=0;entryX=1;entryY=0.5;entryDx=0;entryDy=0;" edge="1" parent="1" source="8WoneooBpd2VVHjkrXWX-11" target="8WoneooBpd2VVHjkrXWX-28">
          <mxGeometry relative="1" as="geometry">
            <mxPoint x="490" y="1100" as="targetPoint" />
            <mxPoint x="766" y="850" as="sourcePoint" />
          </mxGeometry>
        </mxCell>
        <mxCell id="aPDp1a67JPYYB4x0NhG6-25" style="rounded=0;orthogonalLoop=1;jettySize=auto;html=1;exitX=0.5;exitY=0.5;exitDx=0;exitDy=0;exitPerimeter=0;entryX=1;entryY=0.5;entryDx=0;entryDy=0;" edge="1" parent="1" source="8WoneooBpd2VVHjkrXWX-6" target="8WoneooBpd2VVHjkrXWX-28">
          <mxGeometry relative="1" as="geometry">
            <mxPoint x="500" y="1090" as="targetPoint" />
            <mxPoint x="776" y="840" as="sourcePoint" />
          </mxGeometry>
        </mxCell>
        <mxCell id="aPDp1a67JPYYB4x0NhG6-27" style="rounded=0;orthogonalLoop=1;jettySize=auto;html=1;exitX=0.5;exitY=0.5;exitDx=0;exitDy=0;exitPerimeter=0;entryX=1;entryY=0.5;entryDx=0;entryDy=0;" edge="1" parent="1" source="8WoneooBpd2VVHjkrXWX-6" target="8WoneooBpd2VVHjkrXWX-29">
          <mxGeometry relative="1" as="geometry">
            <mxPoint x="510" y="1350" as="targetPoint" />
            <mxPoint x="786" y="1100" as="sourcePoint" />
          </mxGeometry>
        </mxCell>
        <mxCell id="aPDp1a67JPYYB4x0NhG6-28" style="rounded=0;orthogonalLoop=1;jettySize=auto;html=1;exitX=0.5;exitY=0.5;exitDx=0;exitDy=0;exitPerimeter=0;entryX=1;entryY=0.5;entryDx=0;entryDy=0;" edge="1" parent="1" source="8WoneooBpd2VVHjkrXWX-11" target="8WoneooBpd2VVHjkrXWX-29">
          <mxGeometry relative="1" as="geometry">
            <mxPoint x="540" y="1360" as="targetPoint" />
            <mxPoint x="816" y="1110" as="sourcePoint" />
          </mxGeometry>
        </mxCell>
        <mxCell id="aPDp1a67JPYYB4x0NhG6-29" style="rounded=0;orthogonalLoop=1;jettySize=auto;html=1;exitX=0.5;exitY=0.5;exitDx=0;exitDy=0;exitPerimeter=0;entryX=1;entryY=0.5;entryDx=0;entryDy=0;" edge="1" parent="1" source="8WoneooBpd2VVHjkrXWX-6" target="8WoneooBpd2VVHjkrXWX-30">
          <mxGeometry relative="1" as="geometry">
            <mxPoint x="550" y="1330" as="targetPoint" />
            <mxPoint x="826" y="1080" as="sourcePoint" />
          </mxGeometry>
        </mxCell>
        <mxCell id="aPDp1a67JPYYB4x0NhG6-30" style="rounded=0;orthogonalLoop=1;jettySize=auto;html=1;exitX=0.5;exitY=0.5;exitDx=0;exitDy=0;exitPerimeter=0;entryX=1;entryY=0.5;entryDx=0;entryDy=0;" edge="1" parent="1" source="8WoneooBpd2VVHjkrXWX-11" target="8WoneooBpd2VVHjkrXWX-30">
          <mxGeometry relative="1" as="geometry">
            <mxPoint x="529" y="1360" as="targetPoint" />
            <mxPoint x="805" y="1110" as="sourcePoint" />
          </mxGeometry>
        </mxCell>
        <mxCell id="aPDp1a67JPYYB4x0NhG6-31" style="rounded=0;orthogonalLoop=1;jettySize=auto;html=1;exitX=0.5;exitY=0.5;exitDx=0;exitDy=0;exitPerimeter=0;entryX=1;entryY=0.5;entryDx=0;entryDy=0;" edge="1" parent="1" source="8WoneooBpd2VVHjkrXWX-11" target="8WoneooBpd2VVHjkrXWX-31">
          <mxGeometry relative="1" as="geometry">
            <mxPoint x="594" y="1360" as="targetPoint" />
            <mxPoint x="870" y="1110" as="sourcePoint" />
          </mxGeometry>
        </mxCell>
        <mxCell id="aPDp1a67JPYYB4x0NhG6-32" style="rounded=0;orthogonalLoop=1;jettySize=auto;html=1;exitX=0.5;exitY=0.5;exitDx=0;exitDy=0;exitPerimeter=0;entryX=1;entryY=0.5;entryDx=0;entryDy=0;" edge="1" parent="1" source="8WoneooBpd2VVHjkrXWX-6" target="8WoneooBpd2VVHjkrXWX-31">
          <mxGeometry relative="1" as="geometry">
            <mxPoint x="554" y="1390" as="targetPoint" />
            <mxPoint x="830" y="1140" as="sourcePoint" />
          </mxGeometry>
        </mxCell>
        <mxCell id="aPDp1a67JPYYB4x0NhG6-33" style="rounded=0;orthogonalLoop=1;jettySize=auto;html=1;exitX=0.5;exitY=0.5;exitDx=0;exitDy=0;exitPerimeter=0;entryX=1;entryY=0.5;entryDx=0;entryDy=0;" edge="1" parent="1" source="8WoneooBpd2VVHjkrXWX-11" target="8WoneooBpd2VVHjkrXWX-32">
          <mxGeometry relative="1" as="geometry">
            <mxPoint x="604" y="1360" as="targetPoint" />
            <mxPoint x="880" y="1110" as="sourcePoint" />
          </mxGeometry>
        </mxCell>
        <mxCell id="aPDp1a67JPYYB4x0NhG6-34" style="rounded=0;orthogonalLoop=1;jettySize=auto;html=1;exitX=0.5;exitY=0.5;exitDx=0;exitDy=0;exitPerimeter=0;entryX=1;entryY=0.5;entryDx=0;entryDy=0;" edge="1" parent="1" source="8WoneooBpd2VVHjkrXWX-6" target="8WoneooBpd2VVHjkrXWX-32">
          <mxGeometry relative="1" as="geometry">
            <mxPoint x="569" y="690" as="targetPoint" />
            <mxPoint x="845" y="440" as="sourcePoint" />
          </mxGeometry>
        </mxCell>
        <mxCell id="aPDp1a67JPYYB4x0NhG6-35" style="rounded=0;orthogonalLoop=1;jettySize=auto;html=1;exitX=0.5;exitY=0.5;exitDx=0;exitDy=0;exitPerimeter=0;entryX=0;entryY=0.5;entryDx=0;entryDy=0;" edge="1" parent="1" source="8WoneooBpd2VVHjkrXWX-8" target="8WoneooBpd2VVHjkrXWX-14">
          <mxGeometry relative="1" as="geometry">
            <mxPoint x="-90" y="285" as="targetPoint" />
            <mxPoint x="325" y="575" as="sourcePoint" />
          </mxGeometry>
        </mxCell>
        <mxCell id="aPDp1a67JPYYB4x0NhG6-36" style="rounded=0;orthogonalLoop=1;jettySize=auto;html=1;exitX=0.5;exitY=0.5;exitDx=0;exitDy=0;exitPerimeter=0;entryX=0;entryY=0.5;entryDx=0;entryDy=0;" edge="1" parent="1" source="8WoneooBpd2VVHjkrXWX-8" target="8WoneooBpd2VVHjkrXWX-28">
          <mxGeometry relative="1" as="geometry">
            <mxPoint x="190" y="480" as="targetPoint" />
            <mxPoint x="284" y="765" as="sourcePoint" />
          </mxGeometry>
        </mxCell>
        <mxCell id="aPDp1a67JPYYB4x0NhG6-37" style="rounded=0;orthogonalLoop=1;jettySize=auto;html=1;exitX=0.5;exitY=0.5;exitDx=0;exitDy=0;exitPerimeter=0;entryX=0;entryY=0.5;entryDx=0;entryDy=0;" edge="1" parent="1" source="8WoneooBpd2VVHjkrXWX-8" target="8WoneooBpd2VVHjkrXWX-29">
          <mxGeometry relative="1" as="geometry">
            <mxPoint x="-230" y="650" as="targetPoint" />
            <mxPoint x="185" y="940" as="sourcePoint" />
          </mxGeometry>
        </mxCell>
        <mxCell id="aPDp1a67JPYYB4x0NhG6-38" style="rounded=0;orthogonalLoop=1;jettySize=auto;html=1;exitX=0.5;exitY=0.5;exitDx=0;exitDy=0;exitPerimeter=0;entryX=0;entryY=0.5;entryDx=0;entryDy=0;" edge="1" parent="1" source="8WoneooBpd2VVHjkrXWX-8" target="8WoneooBpd2VVHjkrXWX-30">
          <mxGeometry relative="1" as="geometry">
            <mxPoint x="-192.5" y="910" as="targetPoint" />
            <mxPoint x="222.5" y="1200" as="sourcePoint" />
          </mxGeometry>
        </mxCell>
        <mxCell id="aPDp1a67JPYYB4x0NhG6-39" style="rounded=0;orthogonalLoop=1;jettySize=auto;html=1;exitX=0.5;exitY=0.5;exitDx=0;exitDy=0;exitPerimeter=0;entryX=0;entryY=0.5;entryDx=0;entryDy=0;" edge="1" parent="1" source="8WoneooBpd2VVHjkrXWX-8" target="8WoneooBpd2VVHjkrXWX-31">
          <mxGeometry relative="1" as="geometry">
            <mxPoint x="-320" y="865" as="targetPoint" />
            <mxPoint x="95" y="1155" as="sourcePoint" />
          </mxGeometry>
        </mxCell>
        <mxCell id="aPDp1a67JPYYB4x0NhG6-40" style="rounded=0;orthogonalLoop=1;jettySize=auto;html=1;exitX=0.5;exitY=0.5;exitDx=0;exitDy=0;exitPerimeter=0;entryX=0;entryY=0.5;entryDx=0;entryDy=0;" edge="1" parent="1" source="8WoneooBpd2VVHjkrXWX-8" target="8WoneooBpd2VVHjkrXWX-32">
          <mxGeometry relative="1" as="geometry">
            <mxPoint x="-270" y="1120" as="targetPoint" />
            <mxPoint x="145" y="1410" as="sourcePoint" />
          </mxGeometry>
        </mxCell>
        <mxCell id="aPDp1a67JPYYB4x0NhG6-41" value="تسجيل خروج" style="ellipse;whiteSpace=wrap;html=1;fontSize=14;fontStyle=1" vertex="1" parent="1">
          <mxGeometry x="294" y="680" width="140" height="40" as="geometry" />
        </mxCell>
        <mxCell id="aPDp1a67JPYYB4x0NhG6-42" style="rounded=0;orthogonalLoop=1;jettySize=auto;html=1;exitX=0.5;exitY=0.5;exitDx=0;exitDy=0;exitPerimeter=0;entryX=0;entryY=0.5;entryDx=0;entryDy=0;" edge="1" parent="1" source="8WoneooBpd2VVHjkrXWX-8" target="aPDp1a67JPYYB4x0NhG6-41">
          <mxGeometry relative="1" as="geometry">
            <mxPoint x="310" y="1320" as="targetPoint" />
            <mxPoint x="-245" y="680" as="sourcePoint" />
          </mxGeometry>
        </mxCell>
        <mxCell id="aPDp1a67JPYYB4x0NhG6-44" style="rounded=0;orthogonalLoop=1;jettySize=auto;html=1;exitX=0.5;exitY=0.5;exitDx=0;exitDy=0;exitPerimeter=0;entryX=1;entryY=0.5;entryDx=0;entryDy=0;" edge="1" parent="1" source="8WoneooBpd2VVHjkrXWX-11" target="aPDp1a67JPYYB4x0NhG6-41">
          <mxGeometry relative="1" as="geometry">
            <mxPoint x="450" y="1320" as="targetPoint" />
            <mxPoint x="865" y="1010" as="sourcePoint" />
          </mxGeometry>
        </mxCell>
        <mxCell id="aPDp1a67JPYYB4x0NhG6-45" style="rounded=0;orthogonalLoop=1;jettySize=auto;html=1;exitX=0.5;exitY=0.5;exitDx=0;exitDy=0;exitPerimeter=0;entryX=1;entryY=0.5;entryDx=0;entryDy=0;" edge="1" parent="1" source="8WoneooBpd2VVHjkrXWX-6" target="aPDp1a67JPYYB4x0NhG6-41">
          <mxGeometry relative="1" as="geometry">
            <mxPoint x="460" y="1330" as="targetPoint" />
            <mxPoint x="875" y="1020" as="sourcePoint" />
          </mxGeometry>
        </mxCell>
        <mxCell id="aPDp1a67JPYYB4x0NhG6-46" value="" style="endArrow=classic;html=1;rounded=0;entryX=1;entryY=0.5;entryDx=0;entryDy=0;exitX=0.5;exitY=0.5;exitDx=0;exitDy=0;exitPerimeter=0;" edge="1" parent="1" source="8WoneooBpd2VVHjkrXWX-11" target="8WoneooBpd2VVHjkrXWX-13">
          <mxGeometry width="50" height="50" relative="1" as="geometry">
            <mxPoint x="1075" y="560" as="sourcePoint" />
            <mxPoint x="450" y="200" as="targetPoint" />
          </mxGeometry>
        </mxCell>
        <mxCell id="aPDp1a67JPYYB4x0NhG6-47" value="إسترجاع كلمة المرور" style="ellipse;whiteSpace=wrap;html=1;fontSize=14;fontStyle=1" vertex="1" parent="1">
          <mxGeometry x="301" y="740" width="140" height="40" as="geometry" />
        </mxCell>
        <mxCell id="aPDp1a67JPYYB4x0NhG6-48" style="rounded=0;orthogonalLoop=1;jettySize=auto;html=1;exitX=0.5;exitY=0.5;exitDx=0;exitDy=0;exitPerimeter=0;entryX=0;entryY=0.5;entryDx=0;entryDy=0;" edge="1" parent="1" source="8WoneooBpd2VVHjkrXWX-8" target="aPDp1a67JPYYB4x0NhG6-47">
          <mxGeometry relative="1" as="geometry">
            <mxPoint x="376" y="870" as="targetPoint" />
            <mxPoint x="-170" y="790" as="sourcePoint" />
          </mxGeometry>
        </mxCell>
        <mxCell id="aPDp1a67JPYYB4x0NhG6-49" style="rounded=0;orthogonalLoop=1;jettySize=auto;html=1;exitX=0.5;exitY=0.5;exitDx=0;exitDy=0;exitPerimeter=0;entryX=1;entryY=0.5;entryDx=0;entryDy=0;" edge="1" parent="1" source="8WoneooBpd2VVHjkrXWX-11" target="aPDp1a67JPYYB4x0NhG6-47">
          <mxGeometry relative="1" as="geometry">
            <mxPoint x="444" y="710" as="targetPoint" />
            <mxPoint x="1075" y="730" as="sourcePoint" />
          </mxGeometry>
        </mxCell>
        <mxCell id="aPDp1a67JPYYB4x0NhG6-50" style="rounded=0;orthogonalLoop=1;jettySize=auto;html=1;exitX=0.5;exitY=0.5;exitDx=0;exitDy=0;exitPerimeter=0;entryX=1;entryY=0.5;entryDx=0;entryDy=0;" edge="1" parent="1" source="8WoneooBpd2VVHjkrXWX-6" target="aPDp1a67JPYYB4x0NhG6-47">
          <mxGeometry relative="1" as="geometry">
            <mxPoint x="454" y="720" as="targetPoint" />
            <mxPoint x="1085" y="740" as="sourcePoint" />
          </mxGeometry>
        </mxCell>
      </root>
    </mxGraphModel>
  </diagram>
</mxfile>
